# xmcd CD database file
# Copyright (C) 1993-1998 Ti Kan
#
# Track frame offsets:
#	180
#	13206
#	24461
#	36929
#	50512
#	61532
#	74440
#	88220
#	99906
#	112969
#	126633
#	137304
#	147990
#	162040
#	172350
#	182097
#	192315
#	201877
#	214637
#	227018
#	238360
#	249540
#	260621
#	271362
#	283336
#	294592
#	305908
#	315686
#
# Disc length: 4381 seconds
#
# Revision: 1
# Processed by: cddbd v1.4b41PL1 Copyright (c) Steve Scherf et al.
# Submitted via: CDValet v3.31 - Copyright (c) 1997 Greg Leichner
#
DISCID=b5111b1c
DTITLE=Dells - Oh What A Night
DYEAR=1900
DGENRE=
TTITLE0=Oh What A Night
TTITLE1=Time Makes You Change
TTITLE2=Tell The World
TTITLE3=Dreams Of Contentment
TTITLE4=Movin' On
TTITLE5=Darling I Know
TTITLE6=Jo-Jo
TTITLE7=Why Do You Have To Go
TTITLE8=I Can't Help Myself
TTITLE9=Now I Pray
TTITLE10=Dance, Dance, Dance
TTITLE11=Distant Love
TTITLE12=Pains In My Heart
TTITLE13=Baby Open Up Your Heart
TTITLE14=Wedding Day
TTITLE15=I'm Calling
TTITLE16=My Dreams
TTITLE17=Zing, Zing, Zing
TTITLE18=I Wanna Go Home
TTITLE19=She's Just An Angel
TTITLE20=Springer
TTITLE21=Q-Bop-She-Bop
TTITLE22=Dry Your Eyes
TTITLE23=You're Still In My Heart
TTITLE24=Baby Doo
TTITLE25=My Best Girl
TTITLE26=Restless Days
TTITLE27=Stay In My Corner
EXTD=
EXTT0=
EXTT1=
EXTT2=
EXTT3=
EXTT4=
EXTT5=
EXTT6=
EXTT7=
EXTT8=
EXTT9=
EXTT10=
EXTT11=
EXTT12=
EXTT13=
EXTT14=
EXTT15=
EXTT16=
EXTT17=
EXTT18=
EXTT19=
EXTT20=
EXTT21=
EXTT22=
EXTT23=
EXTT24=
EXTT25=
EXTT26=
EXTT27=
PLAYORDER=
